<svg width="22" height="22" viewBox="0 0 22 22" fill="none" xmlns="http://www.w3.org/2000/svg">
<g clip-path="url(#clip0)">
<path d="M20.4133 0H1.58665C0.710327 0 0 0.710327 0 1.58665V20.4133C0 21.2897 0.710327 22 1.58665 22H11.752V13.4922H8.89453V10.1621H11.752V7.71138C11.752 4.8694 13.487 3.32253 16.0221 3.32253C17.2363 3.32253 18.2798 3.41299 18.584 3.45345V6.42383H16.8359C15.4565 6.42383 15.1895 7.07927 15.1895 8.0412V10.1621H18.4873L18.0576 13.4922H15.1895V22H20.4133C21.2897 22 22 21.2897 22 20.4133V1.58665C22 0.710327 21.2897 0 20.4133 0V0Z" fill="white"/>
</g>
<defs>
<clipPath id="clip0">
<rect width="22" height="22" fill="white"/>
</clipPath>
</defs>
</svg>
