<svg width="18" height="18" viewBox="0 0 18 18" fill="none" xmlns="http://www.w3.org/2000/svg">
<g clip-path="url(#clip0)">
<path d="M16.7018 0H1.29817C0.581177 0 0 0.581177 0 1.29817V16.7018C0 17.4188 0.581177 18 1.29817 18H9.61523V11.0391H7.27734V8.31445H9.61523V6.30931C9.61523 3.98405 11.0348 2.71843 13.109 2.71843C14.1025 2.71843 14.9562 2.79245 15.2051 2.82555V5.25586H13.7748C12.6462 5.25586 12.4277 5.79213 12.4277 6.57916V8.31445H15.126L14.7744 11.0391H12.4277V18H16.7018C17.4188 18 18 17.4188 18 16.7018V1.29817C18 0.581177 17.4188 0 16.7018 0V0Z" fill="#602844"/>
</g>
<defs>
<clipPath id="clip0">
<rect width="18" height="18" fill="white"/>
</clipPath>
</defs>
</svg>
