<svg width="30" height="30" viewBox="0 0 30 30" fill="none" xmlns="http://www.w3.org/2000/svg">
<g clip-path="url(#clip0)">
<path d="M14.1211 19.2034V24.8525L9.23904 27.9987C8.91724 28.2062 8.77304 28.5936 8.88542 28.952C8.9978 29.3105 9.33952 29.5552 9.72656 29.5552H20.2734C20.6605 29.5552 21.0022 29.3105 21.1146 28.952C21.227 28.5936 21.0828 28.2062 20.761 27.9987L15.8789 24.8525V19.2034C20.799 18.7722 24.668 14.7673 24.668 9.90088V1.40479C24.668 0.935288 24.2747 0.555176 23.7891 0.555176H19.259H17.1941H6.21094C5.72525 0.555176 5.33203 0.935288 5.33203 1.40479V9.90088C5.33203 14.7673 9.20105 18.7724 14.1211 19.2034Z" fill="#403D35"/>
</g>
<defs>
<clipPath id="clip0">
<rect y="0.555176" width="30" height="29" fill="white"/>
</clipPath>
</defs>
</svg>
