<svg width="30" height="31" viewBox="0 0 30 31" fill="none" xmlns="http://www.w3.org/2000/svg">
<g clip-path="url(#clip0)">
<path d="M20.3481 17.7709V5.92518C20.3481 2.95946 17.9567 0.555176 14.9888 0.555176C12.0242 0.555176 9.64242 2.86518 9.64242 5.83089V17.698C8.32028 19.0545 7.48242 20.998 7.48242 23.0423C7.48242 27.1898 10.8478 30.5552 14.9996 30.5552C19.1492 30.5552 22.5167 27.1898 22.5167 23.0423C22.5167 20.9873 21.6788 19.1295 20.3481 17.7709ZM14.991 28.4123C12.0317 28.4123 9.64242 26.0016 9.64242 23.0423C9.64242 21.2948 10.4813 19.7466 11.7767 18.7695V5.92518C11.7767 4.14875 13.2231 2.71089 14.9996 2.71089C16.7738 2.71089 18.2138 4.14875 18.2138 5.92518V18.7823C19.5071 19.7595 20.3567 21.2959 20.3567 23.0434C20.3567 26.0016 17.9503 28.4123 14.991 28.4123Z" fill="#403D35"/>
<path d="M16.0623 20.0252V11.2695H13.928V20.0252C12.6809 20.4688 11.7852 21.6452 11.7852 23.0424C11.7852 24.8188 13.223 26.2567 14.9994 26.2567C16.7737 26.2567 18.2137 24.8188 18.2137 23.0424C18.2137 21.6452 17.3073 20.4688 16.0623 20.0252Z" fill="#403D35"/>
</g>
<defs>
<clipPath id="clip0">
<rect y="0.555176" width="30" height="30" fill="white"/>
</clipPath>
</defs>
</svg>
