<svg width="22" height="22" viewBox="0 0 22 22" fill="none" xmlns="http://www.w3.org/2000/svg">
<path d="M15.9286 0H6.07104C2.72347 0 0 2.7236 0 6.07117V15.9287C0 19.2764 2.72347 21.9999 6.07104 21.9999H15.9286C19.2764 21.9999 21.9999 19.2763 21.9999 15.9287V6.07117C22 2.7236 19.2764 0 15.9286 0ZM20.0481 15.9287C20.0481 18.2001 18.2001 20.0479 15.9287 20.0479H6.07104C3.79977 20.0481 1.95193 18.2001 1.95193 15.9287V6.07117C1.95193 3.7999 3.79977 1.95193 6.07104 1.95193H15.9286C18.2 1.95193 20.0479 3.7999 20.0479 6.07117V15.9287H20.0481Z" fill="white"/>
<path d="M10.9999 5.33154C7.87404 5.33154 5.33105 7.87452 5.33105 11.0004C5.33105 14.126 7.87404 16.6689 10.9999 16.6689C14.1257 16.6689 16.6687 14.126 16.6687 11.0004C16.6687 7.87452 14.1257 5.33154 10.9999 5.33154ZM10.9999 14.7168C8.95046 14.7168 7.28299 13.0496 7.28299 11.0002C7.28299 8.95069 8.95033 7.28335 10.9999 7.28335C13.0494 7.28335 14.7167 8.95069 14.7167 11.0002C14.7167 13.0496 13.0493 14.7168 10.9999 14.7168Z" fill="white"/>
<path d="M16.9065 3.67627C16.5304 3.67627 16.161 3.82852 15.8954 4.09529C15.6285 4.36075 15.4751 4.73031 15.4751 5.10769C15.4751 5.48389 15.6287 5.85333 15.8954 6.12009C16.1609 6.38556 16.5304 6.53911 16.9065 6.53911C17.2839 6.53911 17.6522 6.38556 17.9189 6.12009C18.1857 5.85333 18.3379 5.48376 18.3379 5.10769C18.3379 4.73031 18.1857 4.36075 17.9189 4.09529C17.6535 3.82852 17.2839 3.67627 16.9065 3.67627Z" fill="white"/>
</svg>
